<svg xmlns="http://www.w3.org/2000/svg" viewBox="0 0 640 440" width="640" height="440" fill="none">
  <!-- pinion fundal (motiv logo) -->
  <g><circle cx="470" cy="150" r="104" fill="none" stroke="#c4c4c7" stroke-width="10" opacity="0.1"/>
<rect x="561.0" y="137.0" width="26" height="36.0" fill="#c4c4c7" opacity="0.1" transform="rotate(90.0 574.0 150.0)"/>
<rect x="550.7" y="182.1" width="26" height="36.0" fill="#c4c4c7" opacity="0.1" transform="rotate(115.7 563.7 195.1)"/>
<rect x="521.8" y="218.3" width="26" height="36.0" fill="#c4c4c7" opacity="0.1" transform="rotate(141.4 534.8 231.3)"/>
<rect x="480.1" y="238.4" width="26" height="36.0" fill="#c4c4c7" opacity="0.1" transform="rotate(167.1 493.1 251.4)"/>
<rect x="433.9" y="238.4" width="26" height="36.0" fill="#c4c4c7" opacity="0.1" transform="rotate(192.9 446.9 251.4)"/>
<rect x="392.2" y="218.3" width="26" height="36.0" fill="#c4c4c7" opacity="0.1" transform="rotate(218.6 405.2 231.3)"/>
<rect x="363.3" y="182.1" width="26" height="36.0" fill="#c4c4c7" opacity="0.1" transform="rotate(244.3 376.3 195.1)"/>
<rect x="353.0" y="137.0" width="26" height="36.0" fill="#c4c4c7" opacity="0.1" transform="rotate(270.0 366.0 150.0)"/>
<rect x="363.3" y="91.9" width="26" height="36.0" fill="#c4c4c7" opacity="0.1" transform="rotate(295.7 376.3 104.9)"/>
<rect x="392.2" y="55.7" width="26" height="36.0" fill="#c4c4c7" opacity="0.1" transform="rotate(321.4 405.2 68.7)"/>
<rect x="433.9" y="35.6" width="26" height="36.0" fill="#c4c4c7" opacity="0.1" transform="rotate(347.1 446.9 48.6)"/>
<rect x="480.1" y="35.6" width="26" height="36.0" fill="#c4c4c7" opacity="0.1" transform="rotate(372.9 493.1 48.6)"/>
<rect x="521.8" y="55.7" width="26" height="36.0" fill="#c4c4c7" opacity="0.1" transform="rotate(398.6 534.8 68.7)"/>
<rect x="550.7" y="91.9" width="26" height="36.0" fill="#c4c4c7" opacity="0.1" transform="rotate(424.3 563.7 104.9)"/>
<circle cx="470" cy="150" r="35" fill="none" stroke="#c4c4c7" stroke-width="8" opacity="0.1"/></g>

  <!-- elevator: stalpi + grinda -->
  <rect x="70" y="150" width="20" height="250" fill="#8e8e91"/>
  <rect x="552" y="150" width="20" height="250" fill="#8e8e91"/>
  <rect x="70" y="138" width="502" height="18" fill="#c4c4c7"/>
  <rect x="62" y="392" width="36" height="14" fill="#8e8e91"/>
  <rect x="544" y="392" width="36" height="14" fill="#8e8e91"/>
  <!-- brate elevator sub masina -->
  <rect x="150" y="300" width="120" height="14" rx="3" fill="#8e8e91"/>
  <rect x="372" y="300" width="120" height="14" rx="3" fill="#8e8e91"/>

  <!-- MASINA (vedere laterala, ridicata) -->
  <!-- corp -->
  <path d="M150 296 L150 250 Q150 238 164 236 L210 230 L250 196 Q256 188 268 188 L392 188 Q404 188 410 196 L444 232 L486 240 Q500 244 500 258 L500 296 Z"
        fill="#c4c4c7"/>
  <!-- linie caroserie -->
  <path d="M158 262 L494 262" stroke="#8e8e91" stroke-width="3"/>
  <!-- geamuri -->
  <path d="M258 200 L300 200 L300 232 L232 232 Z" fill="#2a2b2d"/>
  <path d="M312 200 L386 200 L404 232 L312 232 Z" fill="#2a2b2d"/>
  <!-- maner + faruri -->
  <rect x="330" y="244" width="34" height="6" rx="3" fill="#8e8e91"/>
  <rect x="486" y="250" width="14" height="12" rx="2" fill="#eaeaea"/>
  <rect x="150" y="252" width="10" height="12" rx="2" fill="#8e8e91"/>
  <!-- roti -->
  <g>
    <circle cx="232" cy="300" r="40" fill="#3a3a3c"/>
    <circle cx="232" cy="300" r="40" fill="none" stroke="#c4c4c7" stroke-width="5"/>
    <circle cx="232" cy="300" r="15" fill="none" stroke="#c4c4c7" stroke-width="5"/>
  </g>
  <g>
    <circle cx="420" cy="300" r="40" fill="#3a3a3c"/>
    <circle cx="420" cy="300" r="40" fill="none" stroke="#c4c4c7" stroke-width="5"/>
    <circle cx="420" cy="300" r="15" fill="none" stroke="#c4c4c7" stroke-width="5"/>
  </g>

  <!-- SCULE jos-stanga: cheie fixa + surubelnita incrucisate -->
  <g transform="translate(96,360) rotate(-28)">
    <!-- cheie -->
    <rect x="0" y="-7" width="120" height="14" rx="7" fill="#c4c4c7"/>
    <path d="M120 -16 a18 18 0 1 0 0 32 l-9 -9 a8 8 0 0 1 0 -14 Z" fill="#c4c4c7"/>
  </g>
  <g transform="translate(150,392) rotate(34)">
    <rect x="0" y="-4" width="74" height="8" rx="2" fill="#8e8e91"/>
    <rect x="74" y="-6" width="34" height="12" rx="2" fill="#c4c4c7"/>
  </g>
</svg>